<svg width="18" height="18" viewBox="0 0 18 18" fill="none" xmlns="http://www.w3.org/2000/svg">
<path d="M14.0623 7.875H10.4764L14.4329 11.3906C14.5185 11.4661 14.5791 11.5659 14.6067 11.6766C14.6342 11.7873 14.6275 11.9039 14.5873 12.0107C14.5471 12.1175 14.4753 12.2095 14.3816 12.2746C14.2878 12.3397 14.1765 12.3747 14.0623 12.375H9.56234V16.875C9.56243 16.9863 9.52948 17.0952 9.46768 17.1877C9.40588 17.2803 9.31799 17.3525 9.21516 17.3951C9.11232 17.4377 8.99915 17.4489 8.88998 17.4271C8.78081 17.4054 8.68054 17.3517 8.60187 17.273L3.53937 12.2105C3.48715 12.1582 3.44574 12.0961 3.41751 12.0279C3.38928 11.9596 3.37478 11.8864 3.37484 11.8125V7.3125C3.37484 7.16332 3.4341 7.02024 3.53959 6.91475C3.64508 6.80927 3.78815 6.75 3.93734 6.75H7.52328L3.56398 3.23438C3.4782 3.15873 3.41752 3.05873 3.39003 2.94772C3.36254 2.83671 3.36954 2.71995 3.41009 2.61302C3.45065 2.50608 3.52284 2.41405 3.61704 2.3492C3.71124 2.28434 3.82297 2.24974 3.93734 2.25H14.0623C14.2115 2.25 14.3546 2.30926 14.4601 2.41475C14.5656 2.52024 14.6248 2.66332 14.6248 2.8125V7.3125C14.6248 7.46169 14.5656 7.60476 14.4601 7.71025C14.3546 7.81574 14.2115 7.875 14.0623 7.875Z" fill="#191919"/>
</svg>
