<svg width="18" height="18" viewBox="0 0 18 18" fill="none" xmlns="http://www.w3.org/2000/svg">
<path d="M9 5.625C8.33249 5.625 7.67997 5.82294 7.12495 6.19379C6.56993 6.56464 6.13735 7.09174 5.88191 7.70844C5.62646 8.32514 5.55962 9.00374 5.68985 9.65843C5.82008 10.3131 6.14151 10.9145 6.61351 11.3865C7.08552 11.8585 7.68688 12.1799 8.34157 12.3102C8.99626 12.4404 9.67486 12.3735 10.2916 12.1181C10.9083 11.8626 11.4354 11.4301 11.8062 10.875C12.1771 10.32 12.375 9.66751 12.375 9C12.3741 8.10518 12.0182 7.24728 11.3855 6.61454C10.7527 5.98181 9.89482 5.62593 9 5.625ZM9 11.25C8.55499 11.25 8.11998 11.118 7.74997 10.8708C7.37996 10.6236 7.09157 10.2722 6.92127 9.86104C6.75097 9.4499 6.70642 8.9975 6.79323 8.56105C6.88005 8.12459 7.09434 7.72368 7.40901 7.40901C7.72368 7.09434 8.12459 6.88005 8.56105 6.79323C8.9975 6.70642 9.4499 6.75097 9.86104 6.92127C10.2722 7.09157 10.6236 7.37996 10.8708 7.74997C11.118 8.11998 11.25 8.55499 11.25 9C11.25 9.59674 11.0129 10.169 10.591 10.591C10.169 11.0129 9.59674 11.25 9 11.25ZM12.375 1.6875H5.625C4.58105 1.68862 3.58018 2.10382 2.842 2.842C2.10382 3.58018 1.68862 4.58105 1.6875 5.625V12.375C1.68862 13.4189 2.10382 14.4198 2.842 15.158C3.58018 15.8962 4.58105 16.3114 5.625 16.3125H12.375C13.4189 16.3114 14.4198 15.8962 15.158 15.158C15.8962 14.4198 16.3114 13.4189 16.3125 12.375V5.625C16.3114 4.58105 15.8962 3.58018 15.158 2.842C14.4198 2.10382 13.4189 1.68862 12.375 1.6875ZM15.1875 12.375C15.1875 13.1209 14.8912 13.8363 14.3637 14.3637C13.8363 14.8912 13.1209 15.1875 12.375 15.1875H5.625C4.87908 15.1875 4.16371 14.8912 3.63626 14.3637C3.10882 13.8363 2.8125 13.1209 2.8125 12.375V5.625C2.8125 4.87908 3.10882 4.16371 3.63626 3.63626C4.16371 3.10882 4.87908 2.8125 5.625 2.8125H12.375C13.1209 2.8125 13.8363 3.10882 14.3637 3.63626C14.8912 4.16371 15.1875 4.87908 15.1875 5.625V12.375ZM13.5 5.34375C13.5 5.51063 13.4505 5.67376 13.3578 5.81251C13.2651 5.95127 13.1333 6.05941 12.9791 6.12327C12.825 6.18713 12.6553 6.20384 12.4916 6.17129C12.328 6.13873 12.1776 6.05837 12.0596 5.94037C11.9416 5.82237 11.8613 5.67203 11.8287 5.50836C11.7962 5.34469 11.8129 5.17504 11.8767 5.02086C11.9406 4.86669 12.0487 4.73491 12.1875 4.6422C12.3262 4.54948 12.4894 4.5 12.6562 4.5C12.88 4.5 13.0946 4.58889 13.2529 4.74713C13.4111 4.90536 13.5 5.11997 13.5 5.34375Z" fill="#191919"/>
</svg>
