<svg width="18" height="18" viewBox="0 0 18 18" fill="none" xmlns="http://www.w3.org/2000/svg">
<path d="M17.2729 5.46079L15.1705 7.56313C14.7458 12.4864 10.5939 16.3128 5.62488 16.3128C4.60394 16.3128 3.7623 16.1511 3.12316 15.8319C2.60777 15.5738 2.39684 15.2975 2.3441 15.2188C2.29708 15.1482 2.2666 15.068 2.25494 14.9841C2.24329 14.9001 2.25075 14.8146 2.27678 14.7339C2.30282 14.6533 2.34674 14.5795 2.40527 14.5182C2.4638 14.4569 2.53543 14.4097 2.6148 14.3799C2.63309 14.3729 4.31918 13.7253 5.39004 12.4927C4.79617 12.0045 4.27775 11.4311 3.8516 10.7912C2.97973 9.49672 2.00379 7.24813 2.30473 3.8879C2.31426 3.78112 2.35411 3.6793 2.41958 3.59442C2.48505 3.50953 2.57341 3.44512 2.67426 3.40877C2.77511 3.37243 2.88424 3.36565 2.98881 3.38925C3.09338 3.41284 3.18903 3.46583 3.26449 3.54196C3.2891 3.56657 5.60449 5.8693 8.43527 6.61602V6.18782C8.4342 5.7388 8.52297 5.2941 8.69638 4.87991C8.86978 4.46573 9.1243 4.09042 9.44496 3.7761C9.75637 3.46513 10.1269 3.21968 10.5347 3.05423C10.9425 2.88879 11.3794 2.8067 11.8194 2.81282C12.4097 2.81864 12.9885 2.97711 13.4994 3.27281C14.0104 3.56851 14.4361 3.99138 14.7353 4.50032H16.8749C16.9862 4.50023 17.095 4.53317 17.1876 4.59498C17.2802 4.65678 17.3524 4.74466 17.395 4.8475C17.4376 4.95034 17.4487 5.06351 17.427 5.17268C17.4053 5.28185 17.3516 5.38212 17.2729 5.46079Z" fill="#191919"/>
</svg>
